<?xml version="1.0" encoding="UTF-8"?>
<svg version="1.1" xmlns="http://www.w3.org/2000/svg" width="442" height="510">
<path d="M0 0 C7.75957359 6.79756798 14.58177528 14.1936702 20 23 C20.58136719 23.91007812 21.16273438 24.82015625 21.76171875 25.7578125 C30.88804718 40.60541841 40 62.38720313 40 80 C49.43786395 79.94987997 58.87520827 79.86418379 68.3125 79.75 C69.00778809 79.74169411 69.70307617 79.73338821 70.41943359 79.72483063 C91.52495564 79.46359866 112.30687094 78.54197339 133.1875 75.23779297 C136.05263056 74.99555016 138.21251161 75.38251423 141 76 C141.04583217 110.28548787 141.08104696 144.57096872 141.10213066 178.85648064 C141.10463191 182.90920329 141.10722057 186.96192588 141.10986328 191.01464844 C141.11065021 192.22482482 141.11065021 192.22482482 141.11145304 193.45944922 C141.12014274 206.50268436 141.13590478 219.54590178 141.15430559 232.58912642 C141.17304464 245.98435992 141.18412518 259.37958416 141.18817699 272.77483022 C141.19091376 281.03258665 141.19954055 289.29029295 141.21583293 297.54803394 C141.2264493 303.21969284 141.22959015 308.89132603 141.22700275 314.56299414 C141.22572866 317.82949721 141.2287189 321.09589531 141.23841095 324.3623867 C141.32615821 355.47301144 136.30147821 382.56879988 113.5546875 405.4609375 C83.13600332 434.24518491 47.71166778 447.02874744 6.2980957 447.22119141 C4.61661751 447.23240281 2.93514187 447.24400176 1.25366879 447.25595474 C-3.31471559 447.28713423 -7.88311491 447.31228055 -12.45154285 447.33610296 C-16.32085942 447.356926 -20.1901533 447.38098933 -24.05945122 447.40499556 C-36.53007995 447.48213861 -49.00075891 447.54700158 -61.47147131 447.6089077 C-64.67923117 447.62495862 -67.88698862 447.64142699 -71.09474564 447.65803528 C-174.10367796 448.19045141 -174.10367796 448.19045141 -219.00894547 447.77550507 C-221.93525984 447.75001951 -224.86156871 447.72999017 -227.78793335 447.71124268 C-232.22186454 447.68150481 -236.65532788 447.63638761 -241.08895111 447.57638168 C-242.64266616 447.55708579 -244.19644646 447.54236282 -245.75025177 447.53277969 C-247.79710724 447.51873289 -249.84379256 447.48417239 -251.89038086 447.44824219 C-253.01036972 447.43412292 -254.13035858 447.42000366 -255.2842865 447.40545654 C-258 447 -258 447 -259.64760494 445.87794971 C-261.64268663 443.10755872 -261.36570091 440.93816204 -261.35403442 437.54734802 C-261.35682099 436.55835521 -261.35682099 436.55835521 -261.35966384 435.54938275 C-261.36227019 433.33140792 -261.34339047 431.11413046 -261.32470703 428.89624023 C-261.32222266 427.30472969 -261.32107663 425.71321658 -261.32116699 424.1217041 C-261.31845133 420.67433961 -261.30615954 417.22718466 -261.28662491 413.7798748 C-261.25528769 408.23329979 -261.24526961 402.68680303 -261.23776245 397.14015198 C-261.22320653 388.25285187 -261.19431699 379.36566303 -261.15951526 370.47842127 C-261.09139252 353.01190678 -261.04915531 335.54531632 -261.01385283 318.0787077 C-261.00778814 315.17191886 -261.00103351 312.26513218 -260.9942112 309.35834503 C-260.92620621 279.01822204 -261.17081993 248.69079142 -261.59580475 218.3539235 C-261.65401692 214.19209361 -261.71164134 210.03025606 -261.76855469 205.8684082 C-261.77958878 205.06237188 -261.79062288 204.25633555 -261.80199134 203.42587388 C-262.13501831 178.76786801 -262.11623748 154.11048456 -262.06866455 129.45056152 C-262.05795115 123.2365763 -262.05377055 117.02258577 -262.04882812 110.80859375 C-262.03847697 98.87238377 -262.02170718 86.93619441 -262 75 C-259.41658053 73.70829026 -258.76930131 74.29104725 -256 75 C-253.58782288 75.21727626 -251.17145784 75.3893765 -248.75390625 75.53515625 C-248.03925705 75.57826935 -247.32460785 75.62138245 -246.58830261 75.665802 C-244.2466645 75.80396355 -241.90470773 75.93437249 -239.5625 76.0625 C-238.75889038 76.10702301 -237.95528076 76.15154602 -237.12731934 76.19741821 C-217.14992491 77.28450367 -197.24519411 77.32589287 -177.25 76.5625 C-175.71230957 76.50388794 -175.71230957 76.50388794 -174.14355469 76.4440918 C-173.21446289 76.40195557 -172.28537109 76.35981934 -171.328125 76.31640625 C-170.5124707 76.27974854 -169.69681641 76.24309082 -168.85644531 76.20532227 C-166.98584446 76.19420762 -166.98584446 76.19420762 -166 75 C-165.78682522 73.66512874 -165.62763478 72.32154532 -165.4921875 70.9765625 C-162.26351488 42.46610918 -150.03708442 16.6734949 -127.4375 -1.625 C-90.39656297 -30.47942618 -36.57420127 -28.61504866 0 0 Z M-115 17 C-115.75152344 17.56074219 -116.50304687 18.12148438 -117.27734375 18.69921875 C-132.2715037 30.84738701 -140.52801456 50.26495249 -143 69 C-143.17848309 72.2505046 -143.17848309 72.2505046 -143 75 C-141.4195391 76.5804609 -139.70474123 76.27447022 -137.51171875 76.4296875 C-136.58375488 76.5009082 -135.65579102 76.57212891 -134.69970703 76.64550781 C-133.20866455 76.75910645 -133.20866455 76.75910645 -131.6875 76.875 C-114.81625526 78.31302788 -100.26976641 83.30781084 -84.875 90.125 C-66.917293 97.90599049 -55.00730232 98.27624444 -37.09960938 91.25488281 C-35.27183645 90.51034272 -33.44840044 89.75518516 -31.625 89 C-16.33320748 82.72923593 -1.45993813 80.0875896 15 79 C18.09955928 67.3071798 10.13410433 50.71794985 4.75 40.3125 C2.38440814 36.32589601 -0.39754966 32.63373678 -3.1875 28.9375 C-3.62803711 28.35202393 -4.06857422 27.76654785 -4.52246094 27.16333008 C-5.63154633 25.73520148 -6.81062756 24.36198932 -8 23 C-8.66 23 -9.32 23 -10 23 C-10 22.34 -10 21.68 -10 21 C-26.82587305 5.6400174 -47.92610975 -1.19373404 -70.44140625 -0.453125 C-87.21299958 0.58760835 -101.75006367 6.8977211 -115 17 Z M-220 173 C-236.07113541 191.00776503 -242.75045331 213.22559658 -242.3046875 237.22265625 C-240.97020809 253.76677917 -233.32161597 270.90073768 -222 283 C-221.41347656 283.63035156 -220.82695312 284.26070312 -220.22265625 284.91015625 C-216.05804227 289.2069802 -211.57386538 293.14696894 -207 297 C-206.32324219 297.58910156 -205.64648438 298.17820312 -204.94921875 298.78515625 C-186.07517379 314.48477317 -159.72421944 317.82432175 -136 316 C-131.08895007 315.27912803 -126.31280325 314.14859386 -121.51953125 312.875 C-118 312 -118 312 -114 312 C-113.59273682 312.79265259 -113.59273682 312.79265259 -113.17724609 313.60131836 C-106.8873999 326.04713165 -106.8873999 326.04713165 -99.45507812 337.81958008 C-97.89896449 340.1514007 -96.57771038 342.5347842 -95.2578125 345.0078125 C-92.00066554 351.03593522 -88.58531416 356.96166632 -85.125 362.875 C-84.51293701 363.92349121 -83.90087402 364.97198242 -83.27026367 366.05224609 C-79.45662924 372.56697355 -75.58236184 379.0314715 -71.55078125 385.4140625 C-69.87503525 388.2083795 -68.42220103 391.06966435 -67 394 C-66.01 394 -65.02 394 -64 394 C-63.47792969 392.98164063 -62.95585937 391.96328125 -62.41796875 390.9140625 C-58.3783918 383.11632779 -54.17907497 375.47250856 -49.5625 368 C-49.09714844 367.2467041 -48.63179687 366.4934082 -48.15234375 365.71728516 C-47.21744999 364.205852 -46.28223227 362.69461919 -45.34667969 361.18359375 C-38.041822 349.33902392 -31.33590366 337.20258535 -24.82104492 324.90820312 C-22.08706414 319.76864533 -19.37567898 314.74756822 -16 310 C-10.33287046 311.47681554 -4.72842873 313.07104482 0.8347168 314.89892578 C24.94411737 322.74017871 51.4379165 322.78104175 74.4375 311.28125 C81.23992579 307.66041093 87.06483983 303.62815171 92.64453125 298.2578125 C95 296 95 296 97.44921875 293.9921875 C111.58945284 282.31595024 122.17233243 264.34993667 124 246 C124.84675493 232.88425893 125.24144841 220.24824577 120 208 C119.566875 206.74509766 119.566875 206.74509766 119.125 205.46484375 C111.12057527 182.91666515 93.12955725 167.47118209 72.29003906 157.06445312 C66.38709311 154.32065309 60.31310756 152.52843657 54 151 C52.96101563 150.74476563 51.92203125 150.48953125 50.8515625 150.2265625 C28.60191248 145.82239013 2.13920507 150.97109881 -17 163 C-20.52536346 165.47536312 -23.77822183 168.14385126 -27 171 C-27.86625 171.74636719 -28.7325 172.49273437 -29.625 173.26171875 C-41.51036013 183.67909541 -50.59004644 195.79875984 -55.9296875 210.76953125 C-56.28289062 211.50558594 -56.63609375 212.24164063 -57 213 C-57.99 213.33 -58.98 213.66 -60 214 C-60.20753906 212.99582031 -60.41507813 211.99164063 -60.62890625 210.95703125 C-63.46417501 198.07002196 -68.39364132 187.17829634 -77 177 C-78.09441406 175.68902344 -78.09441406 175.68902344 -79.2109375 174.3515625 C-84.87018401 167.83539539 -90.81795138 162.75892583 -98 158 C-98.64195312 157.54109375 -99.28390625 157.0821875 -99.9453125 156.609375 C-114.56134172 146.6122641 -132.26925313 143.3996794 -149.625 143.5625 C-150.32388336 143.56587372 -151.02276672 143.56924744 -151.74282837 143.57272339 C-179.66145532 143.7674795 -200.21473582 152.78586448 -220 173 Z " fill="#3E529E" transform="translate(283,37)"/>
<path d="M0 0 C0.88171875 0.43699219 1.7634375 0.87398437 2.671875 1.32421875 C17.1702507 8.83399832 29.50677721 23.95816292 35.171875 39.140625 C35.93236612 41.76647169 36.54015426 44.30661779 37 47 C37.17917969 47.97453125 37.35835937 48.9490625 37.54296875 49.953125 C38.35067978 55.84766308 38.26571772 61.81176874 38.3125 67.75 C38.34150391 68.96171875 38.37050781 70.1734375 38.40039062 71.421875 C38.53688914 90.90966294 27.76322974 105.27141985 15 119 C14.40300293 119.65967773 13.80600586 120.31935547 13.19091797 120.99902344 C8.33106931 126.15536801 3.305707 129.5628131 -3 132.75 C-3.9271582 133.22026611 -4.85431641 133.69053223 -5.80957031 134.17504883 C-25.30980885 143.75868624 -49.00701244 145.70350381 -69.83984375 138.77929688 C-93.28668992 130.32062452 -109.03227474 118.1409217 -120.6171875 95.89453125 C-128.48600869 79.0161426 -129.6524277 58.68422494 -124 40.84375 C-117.84620898 25.13538871 -107.49869376 12.92613931 -94 3 C-92.88818359 2.1646875 -92.88818359 2.1646875 -91.75390625 1.3125 C-86.17180016 -2.66761129 -80.47205528 -4.85156292 -74 -7 C-71.23142363 -8.04847703 -68.46592693 -9.10437476 -65.703125 -10.16796875 C-44.4924461 -16.69668928 -18.58435073 -10.95612305 0 0 Z M-60 27 C-60.03867187 28.03447266 -60.03867187 28.03447266 -60.078125 29.08984375 C-60.58517255 37.49069969 -62.47600646 45.14204926 -68.25390625 51.5859375 C-75.9147688 57.79003648 -84.91751578 60.36246611 -94.625 60.296875 C-98.07928043 59.86508995 -100.87455092 58.53916265 -103.95703125 56.97265625 C-105.96432914 56.01698287 -107.83165213 55.46290573 -110 55 C-115.09213719 65.82079153 -113.862933 77.89406762 -110 89 C-107.96429187 93.20336031 -105.80105987 97.25400427 -103 101 C-102.34 101 -101.68 101 -101 101 C-100.72542969 101.59296875 -100.45085937 102.1859375 -100.16796875 102.796875 C-96.6920141 109.35352524 -90.85712014 112.90726221 -84.5 116.3125 C-83.87134033 116.64991211 -83.24268066 116.98732422 -82.5949707 117.33496094 C-70.72795567 123.44373276 -56.06790356 124.03936787 -43.109375 121.125 C-30.64096989 116.26551903 -22.61567879 106.25074701 -17.03515625 94.42578125 C-12.43448076 83.64457568 -12.81593817 72.21752538 -16.6171875 61.19921875 C-23.14682793 46.09250826 -36.14087974 34.21914634 -51.375 28.0625 C-54.57759825 27.12380741 -56.73172351 26.90453488 -60 27 Z " fill="#3F539C" transform="translate(359,207)"/>
<path d="M0 0 C25.01841208 -0.5640756 46.84749305 8.80653829 64.80859375 25.765625 C67.0078125 28.12109375 67.0078125 28.12109375 67.0078125 30.12109375 C67.6678125 30.12109375 68.3278125 30.12109375 69.0078125 30.12109375 C82.07801437 45.83109008 86.429099 65.05169237 85.0078125 85.12109375 C83.26159812 99.60858164 76.54411715 116.4341364 66.41796875 127.0390625 C65.0078125 128.12109375 65.0078125 128.12109375 63.0078125 128.12109375 C63.0078125 128.78109375 63.0078125 129.44109375 63.0078125 130.12109375 C57.53162202 135.12109375 57.53162202 135.12109375 55.0078125 135.12109375 C55.0078125 135.78109375 55.0078125 136.44109375 55.0078125 137.12109375 C52.74373052 138.6848197 50.50186941 140.10760862 48.1328125 141.49609375 C47.10051514 142.10445068 47.10051514 142.10445068 46.04736328 142.72509766 C40.85713164 145.73137505 35.74899491 148.32527366 30.0078125 150.12109375 C29.11964844 150.41757812 28.23148437 150.7140625 27.31640625 151.01953125 C6.19638968 157.02235213 -18.7116689 153.32519133 -37.9921875 143.12109375 C-42.11008631 140.60943124 -46.0684735 137.92450511 -49.9921875 135.12109375 C-50.55993896 134.7444458 -51.12769043 134.36779785 -51.71264648 133.97973633 C-56.020781 131.06604764 -59.25896649 127.92135761 -62.4296875 123.80859375 C-62.89632812 123.20901855 -63.36296875 122.60944336 -63.84375 121.99169922 C-68.91003314 115.24764355 -72.67443196 107.855909 -75.9921875 100.12109375 C-76.27191406 99.46979492 -76.55164063 98.81849609 -76.83984375 98.14746094 C-78.72417733 93.47986652 -79.63574703 89.13308321 -79.9921875 84.12109375 C-80.04213867 83.45239258 -80.09208984 82.78369141 -80.14355469 82.09472656 C-81.31776917 62.28337989 -75.7684343 43.1034363 -62.8046875 27.80859375 C-45.60700603 10.11200343 -24.5541176 0.9937045 0 0 Z M27.0078125 30.12109375 C26.90984375 31.03890625 26.811875 31.95671875 26.7109375 32.90234375 C25.46564984 43.12229074 23.53552504 50.76066371 16.0078125 58.12109375 C8.88006135 63.12138977 0.39706584 63.30231442 -7.9921875 62.12109375 C-11.35296276 60.84134091 -14.3156401 59.36224158 -17.40625 57.53125 C-19.99168768 56.12136631 -22.0944229 55.53431289 -24.9921875 55.12109375 C-29.8734318 68.46316151 -29.27913195 83.18462212 -24.11328125 96.36328125 C-17.7694672 110.00646294 -6.49574628 118.07876934 7.0078125 124.12109375 C12.37085354 125.90071422 17.56412405 126.50919411 23.1953125 126.49609375 C23.92854736 126.49448242 24.66178223 126.49287109 25.41723633 126.49121094 C34.65350247 126.28647354 43.73605759 124.03996402 51.0078125 118.12109375 C51.62914062 117.651875 52.25046875 117.18265625 52.890625 116.69921875 C58.72027703 112.04436352 62.42032305 106.61490376 66.0078125 100.12109375 C66.44480469 99.37472656 66.88179688 98.62835938 67.33203125 97.859375 C71.92506955 88.62495063 71.47106249 75.4715187 68.9453125 65.62109375 C63.13315195 50.03146686 50.66940281 39.46357858 36.15673828 32.19384766 C32.81322622 30.67131578 30.74930012 30.12109375 27.0078125 30.12109375 Z " fill="#3F539C" transform="translate(130.9921875,189.87890625)"/>
<path d="M0 0 C1.21284668 -0.01216049 1.21284668 -0.01216049 2.45019531 -0.02456665 C5.05029459 -0.04333173 7.64984264 -0.04337692 10.25 -0.0390625 C11.13429687 -0.0405127 12.01859375 -0.04196289 12.9296875 -0.04345703 C27.69092393 -0.04078289 41.79563479 1.13897202 56.25 4.3359375 C57.23334668 7.41711783 57.41255188 8.00658094 55.90625 11.05859375 C55.1946875 12.16074219 54.483125 13.26289063 53.75 14.3984375 C49.48522881 21.1669355 45.57447589 28.09463895 41.73043823 35.1100769 C36.80667388 44.09123029 31.8021278 52.92758462 26.109375 61.4453125 C23.67126814 65.23564669 21.6270776 69.18607427 19.63671875 73.2265625 C18.05546314 75.63185272 16.8189889 76.17027149 14.25 77.3359375 C7.5098394 66.78140949 0.88617807 56.16946544 -5.51953125 45.40820312 C-7.64757484 41.83432517 -9.776044 38.26522031 -12 34.75 C-15.69490265 28.90454855 -19.12868524 22.97237137 -22.3125 16.8359375 C-22.67182617 16.1646582 -23.03115234 15.49337891 -23.40136719 14.80175781 C-24.93283408 11.77095269 -25.79351968 9.7890191 -25.46484375 6.3671875 C-25.11099609 5.36171875 -25.11099609 5.36171875 -24.75 4.3359375 C-16.48233239 1.873228 -8.66233485 0.02759373 0 0 Z " fill="#3F539C" transform="translate(202.75,338.6640625)"/>
<path d="M0 0 C0.99 0 1.98 0 3 0 C3.23074219 0.5576001 3.46148437 1.1152002 3.69921875 1.68969727 C11.20387363 21.208892 11.20387363 21.208892 22.29296875 38.71875 C22.85628906 39.4715625 23.41960937 40.224375 24 41 C23.67 41.99 23.34 42.98 23 44 C22.13246094 43.9278125 21.26492187 43.855625 20.37109375 43.78125 C5.26080211 42.70087165 -9.86068767 42.90673346 -25 43 C-24.39492418 39.91041396 -23.42837165 37.9039599 -21.55859375 35.3828125 C-21.06101563 34.70017334 -20.5634375 34.01753418 -20.05078125 33.31420898 C-19.51839844 32.59177002 -18.98601562 31.86933105 -18.4375 31.125 C-11.30593688 21.24375234 -5.27827907 10.99641473 0 0 Z " fill="#41549A" transform="translate(223,288)"/>
<path d="M0 0 C0.33 0 0.66 0 1 0 C1.33 7.59 1.66 15.18 2 23 C97.7 23 193.4 23 292 23 C292 23.33 292 23.66 292 24 C283.52658958 26.39549703 275.14373807 26.31487736 266.41162109 26.3347168 C264.7302875 26.3456427 263.04895915 26.3574016 261.36763668 26.36992264 C256.795059 26.40141966 252.22250321 26.42065578 247.64985108 26.4374969 C242.78770414 26.45731093 237.92562221 26.48784752 233.06352234 26.51673889 C222.64690648 26.57634667 212.23026019 26.62063753 201.81355667 26.66160583 C195.39537492 26.68697057 188.97721413 26.71620396 182.55905151 26.74597168 C86.47074494 27.186798 86.47074494 27.186798 40.99060822 26.77505875 C38.0645339 26.75001741 35.13846258 26.73019078 32.21234131 26.71151733 C27.77833788 26.68179229 23.34480536 26.63658314 18.91111183 26.57644463 C17.35737034 26.55710775 15.80356325 26.54235742 14.24973106 26.53276253 C12.20288138 26.51871755 10.15620178 26.48416456 8.10961914 26.44824219 C6.98963028 26.43412292 5.86964142 26.42000366 4.7157135 26.40545654 C2 26 2 26 0.13865662 24.70953369 C-1.86521675 21.70099803 -1.34479465 18.17416563 -1.25 14.6875 C-1.24484375 13.94048828 -1.2396875 13.19347656 -1.234375 12.42382812 C-1.17487529 8.18819224 -0.82193706 4.169342 0 0 Z " fill="#5A6075" transform="translate(23,458)"/>
<path d="M0 0 C1.6707109 0.31243238 3.33657152 0.65086596 5 1 C9.9479028 1.49011865 14.91191974 1.77117998 19.875 2.0625 C20.62624146 2.10735535 21.37748291 2.15221069 22.15148926 2.19842529 C46.73327688 3.61161945 71.389369 3.17944658 96 3 C95.67 3.66 95.34 4.32 95 5 C70.60406009 6.21014161 46.38728439 6.37190229 22 5.0625 C21.17947144 5.01902435 20.35894287 4.97554871 19.5135498 4.93075562 C17.17534457 4.80444317 14.83764411 4.67142704 12.5 4.53515625 C11.45033051 4.47725418 11.45033051 4.47725418 10.37945557 4.41818237 C7.08515346 4.21606513 4.22359386 3.80589847 1 3 C1 66.36 1 129.72 1 195 C0.67 195 0.34 195 0 195 C-0.74685997 148.58421402 -1.11038046 102.17363616 -1.12338257 55.75164795 C-1.12500509 51.92549386 -1.12856911 48.09934565 -1.13256836 44.27319336 C-1.1383923 38.21947497 -1.138668 32.16578188 -1.13431931 26.11206245 C-1.13331965 23.85826188 -1.13391671 21.60446 -1.13615799 19.35066032 C-1.13868488 16.26491595 -1.1349405 13.17924476 -1.12939453 10.09350586 C-1.13142128 9.1784729 -1.13344803 8.26343994 -1.13553619 7.32067871 C-1.11430627 1.11430627 -1.11430627 1.11430627 0 0 Z " fill="#4F525E" transform="translate(22,111)"/>
<path d="M0 0 C-0.33 0.66 -0.66 1.32 -1 2 C-1.93199219 1.40832031 -2.86398437 0.81664063 -3.82421875 0.20703125 C-11.94509756 -4.85994263 -19.8670877 -8.97279873 -29 -12 C-30.155 -12.391875 -31.31 -12.78375 -32.5 -13.1875 C-49.54545205 -17.14447994 -67.24959065 -17.5049165 -84.41674805 -13.97973633 C-90.67494787 -12.70262824 -90.67494787 -12.70262824 -94 -14 C-63.27481747 -24.61930272 -25.86364562 -20.32143585 0 0 Z " fill="#595E71" transform="translate(278,34)"/>
<path d="M0 0 C0.33 0 0.66 0 1 0 C0.51714747 5.97212345 -0.25466016 11.73560187 -1.59765625 17.578125 C-2.06896476 20.41512767 -2.0622261 23.12930265 -2 26 C-1.39639648 26.04487549 -0.79279297 26.08975098 -0.17089844 26.13598633 C15.10868436 27.3054016 28.64685004 29.43391626 43 35 C43 35.33 43 35.66 43 36 C38.16407396 35.62071168 34.17881582 34.73368207 29.625 33.0625 C21.50149553 30.39004069 13.16901915 30.13797911 4.67431641 29.68383789 C3.57007324 29.62059326 2.46583008 29.55734863 1.328125 29.4921875 C0.3268457 29.44433105 -0.67443359 29.39647461 -1.70605469 29.34716797 C-2.46305664 29.23260254 -3.22005859 29.11803711 -4 29 C-7.55310282 21.89379436 -3.29480761 10.15880201 -1 3 C-0.67 2.01 -0.34 1.02 0 0 Z " fill="#5A5F71" transform="translate(143,86)"/>
<path d="M0 0 C3.27365249 2.77080305 5.0468869 6.41815597 7.0625 10.125 C7.86454807 11.5736579 8.66798095 13.02154979 9.47265625 14.46875 C10.09551514 15.59023438 10.09551514 15.59023438 10.73095703 16.734375 C12.77828857 20.38948017 14.88008888 24.01159972 17 27.625 C17.41113037 28.32584717 17.82226074 29.02669434 18.24584961 29.7487793 C21.45159953 35.16747001 24.81424693 40.47423024 28.30859375 45.71142578 C31 49.79135298 31 49.79135298 31 52 C30.34 52 29.68 52 29 52 C27.90600586 50.58569336 27.90600586 50.58569336 26.71484375 48.58984375 C26.04932495 47.48709106 26.04932495 47.48709106 25.37036133 46.36206055 C24.89751709 45.56195557 24.42467285 44.76185059 23.9375 43.9375 C23.44725342 43.12128174 22.95700684 42.30506348 22.4519043 41.46411133 C20.96139041 38.97992151 19.48030228 36.49028449 18 34 C16.8072108 32.00803284 15.61212713 30.01746401 14.41625977 28.02734375 C13.68277366 26.80470467 12.95147454 25.58075082 12.22241211 24.35546875 C10.42408051 21.33801903 8.5958069 18.34747254 6.69921875 15.390625 C6.32949951 14.80901611 5.95978027 14.22740723 5.57885742 13.62817383 C4.57054441 12.0480499 3.55129798 10.47491772 2.53125 8.90234375 C0.92889839 5.86523343 0.36325638 3.39543808 0 0 Z " fill="#5B6071" transform="translate(184,358)"/>
<path d="M0 0 C-11.36085596 6.62716598 -23.31016622 8.36033818 -36.25 8.4375 C-37.25039307 8.44749023 -38.25078613 8.45748047 -39.28149414 8.46777344 C-40.69676392 8.45085449 -40.69676392 8.45085449 -42.140625 8.43359375 C-42.98141602 8.42384521 -43.82220703 8.41409668 -44.68847656 8.40405273 C-47.4695025 7.91793128 -48.89090405 6.83134368 -51 5 C-49.84552368 5.0314209 -49.84552368 5.0314209 -48.66772461 5.06347656 C-27.96392788 5.67922505 -27.96392788 5.67922505 -8 1 C-2.23236515 -1.11618257 -2.23236515 -1.11618257 0 0 Z " fill="#5B6175" transform="translate(172,335)"/>
<path d="M0 0 C0 3.35084661 -0.80850446 5.48175358 -1.921875 8.63671875 C-4.45436499 16.67971938 -4.88720997 24.45415774 -5.25 32.8125 C-5.3266167 34.29500059 -5.40473364 35.77742444 -5.484375 37.25976562 C-5.67348443 40.83912906 -5.8425129 44.41908897 -6 48 C-6.33 48 -6.66 48 -7 48 C-9.44795037 33.00630397 -9.59549206 14.61847991 -2 1 C-1.34 0.67 -0.68 0.34 0 0 Z " fill="#535867" transform="translate(240,240)"/>
<path d="M0 0 C0.99 0 1.98 0 3 0 C3.37753418 0.89138672 3.37753418 0.89138672 3.76269531 1.80078125 C4.92249716 4.53497955 6.08622158 7.26749204 7.25 10 C7.84361328 11.40185547 7.84361328 11.40185547 8.44921875 12.83203125 C10.287262 17.14088674 12.15929476 21.39289905 14.296875 25.5625 C16 29 16 29 16 31 C15.34 31 14.68 31 14 31 C12.34155967 27.63105463 10.70055134 24.2538999 9.0625 20.875 C8.59392578 19.92367188 8.12535156 18.97234375 7.64257812 17.9921875 C5.39897459 13.3435701 3.41348863 9.22579245 3 4 C-0.33557632 6.9905167 -2.15083921 9.93184627 -4 14 C-4.66 14 -5.32 14 -6 14 C-4.50829734 9.0276578 -2.39542583 4.58154261 0 0 Z " fill="#595F74" transform="translate(223,288)"/>
<path d="M0 0 C3.006818 1.33999498 4.99762609 2.79845291 7.25 5.1875 C10.98450179 9.02529652 14.89966463 12.55755426 19 16 C19.7115625 16.60070312 20.423125 17.20140625 21.15625 17.8203125 C26.41479481 22.09750916 31.83151869 25.20551055 38 28 C34.28272326 29.13583456 32.52948291 28.66670026 29 27 C29 26.34 29 25.68 29 25 C28.29875 24.7525 27.5975 24.505 26.875 24.25 C22.44315081 22.32310905 18.09679922 19.78497682 15 16 C15 15.34 15 14.68 15 14 C14.46375 13.773125 13.9275 13.54625 13.375 13.3125 C10.17539839 11.54429911 7.70962777 9.46329797 5 7 C5 6.34 5 5.68 5 5 C4.34 5 3.68 5 3 5 C3 4.34 3 3.68 3 3 C2.01 2.67 1.02 2.34 0 2 C0 1.34 0 0.68 0 0 Z " fill="#5A5E6E" transform="translate(57,317)"/>
<path d="M0 0 C-3.74462535 2.4964169 -7.33015456 2.9539791 -11.6875 3.625 C-12.53022461 3.75616211 -13.37294922 3.88732422 -14.24121094 4.02246094 C-24.56753221 5.5164984 -34.66667746 5.64273333 -45 4 C-45 3.67 -45 3.34 -45 3 C-43.85168701 2.970271 -43.85168701 2.970271 -42.68017578 2.93994141 C-39.16147896 2.84380795 -35.64330552 2.73449084 -32.125 2.625 C-30.92101562 2.5940625 -29.71703125 2.563125 -28.4765625 2.53125 C-22.19777856 2.32650705 -16.26129928 1.89010345 -10.14257812 0.42773438 C-6.73089713 -0.25335782 -3.46738244 -0.12842157 0 0 Z " fill="#636981" transform="translate(165,350)"/>
<path d="M0 0 C0.66 0 1.32 0 2 0 C2.25579834 0.51796143 2.51159668 1.03592285 2.77514648 1.56958008 C7.55457055 11.1635632 12.16593009 20.06290863 19.3828125 28.06640625 C21 30 21 30 21 32 C20.34 32 19.68 32 19 32 C17.18377573 30.04312536 15.52252018 28.093346 13.875 26 C13.14446411 25.0733252 13.14446411 25.0733252 12.39916992 24.12792969 C0 7.83966121 0 7.83966121 0 0 Z " fill="#565B6F" transform="translate(55,288)"/>
<path d="M0 0 C1.32 0.33 2.64 0.66 4 1 C4 1.66 4 2.32 4 3 C4.66 3 5.32 3 6 3 C7.3671875 4.94140625 7.3671875 4.94140625 8.875 7.5625 C9.36742187 8.40941406 9.85984375 9.25632813 10.3671875 10.12890625 C11.17542969 11.55009766 11.17542969 11.55009766 12 13 C12.71929687 14.03125 13.43859375 15.0625 14.1796875 16.125 C16.93820584 20.95471356 16.43292423 26.03068197 16.25 31.4375 C16.23195312 32.45521484 16.21390625 33.47292969 16.1953125 34.52148438 C16.14847997 37.01531655 16.08291427 39.50715047 16 42 C15.67 42 15.34 42 15 42 C14.96261719 40.96101563 14.92523438 39.92203125 14.88671875 38.8515625 C14.19600627 22.96708355 10.20927309 12.4979453 0 0 Z " fill="#525662" transform="translate(186,235)"/>
<path d="M0 0 C6.49110557 0.28222198 12.44461815 2.67446 18 6 C18.33 6.99 18.66 7.98 19 9 C14.99009223 7.44777764 11.08951146 5.69622277 7.18359375 3.90234375 C5.13206262 3.05457328 3.16442017 2.47607428 1 2 C1.04125 3.155 1.0825 4.31 1.125 5.5 C1.125 9.97138832 0.34657386 13.73584944 -1 18 C-1.66 18.33 -2.32 18.66 -3 19 C-2.69277348 16.02020106 -2.37948528 13.04126241 -2.0625 10.0625 C-1.97548828 9.21236328 -1.88847656 8.36222656 -1.79882812 7.48632812 C-1.71181641 6.67744141 -1.62480469 5.86855469 -1.53515625 5.03515625 C-1.456604 4.2862915 -1.37805176 3.53742676 -1.29711914 2.76586914 C-1 1 -1 1 0 0 Z " fill="#585E75" transform="translate(157,218)"/>
<path d="M0 0 C1.09731445 0.00676758 1.09731445 0.00676758 2.21679688 0.01367188 C3.99873419 0.02531852 5.78062863 0.04324809 7.5625 0.0625 C7.2325 0.7225 6.9025 1.3825 6.5625 2.0625 C4.12309268 2.30219301 1.7578701 2.43309176 -0.6875 2.5 C-7.2572819 2.77622696 -13.25360758 3.79321289 -19.640625 5.4296875 C-23.04492651 6.19993449 -25.97066308 6.30437234 -29.4375 6.0625 C-26.53111794 4.12491196 -24.51715696 3.38821855 -21.1875 2.5 C-20.27484375 2.25121094 -19.3621875 2.00242187 -18.421875 1.74609375 C-12.2325083 0.32837232 -6.31340197 -0.07509078 0 0 Z " fill="#5A5F71" transform="translate(292.4375,115.9375)"/>
<path d="M0 0 C0.33 1.32 0.66 2.64 1 4 C0.34 4 -0.32 4 -1 4 C-1.16326782 5.07350708 -1.16326782 5.07350708 -1.32983398 6.16870117 C-2.05932654 9.25064114 -3.18647372 11.53565269 -4.72265625 14.30078125 C-5.52993164 15.76547852 -5.52993164 15.76547852 -6.35351562 17.25976562 C-6.91748047 18.26716797 -7.48144531 19.27457031 -8.0625 20.3125 C-8.63033203 21.33923828 -9.19816406 22.36597656 -9.78320312 23.42382812 C-11.18284995 25.9526018 -12.58860511 28.47777036 -14 31 C-14.66 31 -15.32 31 -16 31 C-14.67904588 26.65162313 -12.98197857 22.89548948 -10.7421875 18.9453125 C-10.11699219 17.83671875 -9.49179688 16.728125 -8.84765625 15.5859375 C-8.19667969 14.44382812 -7.54570312 13.30171875 -6.875 12.125 C-6.20915523 10.94818823 -5.54378604 9.77110724 -4.87890625 8.59375 C-3.25725735 5.72648674 -1.63082801 2.86204916 0 0 Z " fill="#585D71" transform="translate(264,350)"/>
<path d="M0 0 C0.33 0 0.66 0 1 0 C1.01458252 0.63389648 1.02916504 1.26779297 1.04418945 1.92089844 C1.41541201 22.14024717 1.41541201 22.14024717 8 41 C7.67 41.66 7.34 42.32 7 43 C1.92076011 38.51794347 0.25992177 31.95122832 -0.31835938 25.38525391 C-0.39180482 21.51993942 -0.35032915 17.67710155 -0.25 13.8125 C-0.22987889 12.46552172 -0.21163815 11.118514 -0.1953125 9.77148438 C-0.14860378 6.51355084 -0.08311562 3.25717345 0 0 Z " fill="#60667C" transform="translate(102,249)"/>
<path d="M0 0 C5.93627861 0.50352363 10.60494426 1.76657204 16 4.25 C17.04220703 4.71708374 17.04220703 4.71708374 18.10546875 5.19360352 C23.00795382 7.43271929 27.55218317 9.94212593 32 13 C31.34 13.66 30.68 14.32 30 15 C29.45214844 14.63648438 28.90429688 14.27296875 28.33984375 13.8984375 C23.13936023 10.6005699 17.89258818 7.96393175 12.1875 5.6875 C11.55384521 5.43339355 10.92019043 5.17928711 10.26733398 4.91748047 C6.8744786 3.59975367 3.59445331 2.58195911 0 2 C0 1.34 0 0.68 0 0 Z " fill="#5B5F6F" transform="translate(157,182)"/>
<path d="M0 0 C0.66 0.33 1.32 0.66 2 1 C1.43152344 1.6290625 0.86304688 2.258125 0.27734375 2.90625 C-0.88087891 4.19015625 -0.88087891 4.19015625 -2.0625 5.5 C-3.29033203 6.85931641 -3.29033203 6.85931641 -4.54296875 8.24609375 C-7.25254885 11.2830635 -9.88735388 14.37684753 -12.4921875 17.50390625 C-14 19 -14 19 -17 20 C-15.55146412 15.38172678 -12.89198185 12.32252558 -9.625 8.875 C-8.90183594 8.08802734 -8.90183594 8.08802734 -8.1640625 7.28515625 C-5.62109942 4.55561708 -3.0773311 2.1147536 0 0 Z " fill="#525A77" transform="translate(260,214)"/>
<path d="M0 0 C0 0.33 0 0.66 0 1 C-1.56234375 1.03867187 -1.56234375 1.03867187 -3.15625 1.078125 C-11.66485726 1.38314677 -19.52927756 2.28821513 -27.73242188 4.62792969 C-31.25984059 5.62816028 -34.32864077 6.21719873 -38 6 C-26.3960713 -1.73595247 -13.36338848 -0.44159647 0 0 Z " fill="#5C606E" transform="translate(224,36)"/>
<path d="M0 0 C2.33469686 2.15685945 3.87521105 4.27740889 5.41015625 7.0546875 C5.84263672 7.83457031 6.27511719 8.61445313 6.72070312 9.41796875 C7.38489258 10.63419922 7.38489258 10.63419922 8.0625 11.875 C8.50916016 12.67808594 8.95582031 13.48117187 9.41601562 14.30859375 C11.5229506 18.13194063 13.5232884 21.87855631 15 26 C14.34 26 13.68 26 13 26 C10.52592334 22.59293534 8.49998357 18.88245055 6.375 15.25 C5.76398438 14.23421875 5.15296875 13.2184375 4.5234375 12.171875 C3.9459375 11.1921875 3.3684375 10.2125 2.7734375 9.203125 C2.24153809 8.30239258 1.70963867 7.40166016 1.16162109 6.47363281 C0 4 0 4 0 0 Z " fill="#5C637D" transform="translate(191,388)"/>
<path d="M0 0 C1.37671875 0.81404297 1.37671875 0.81404297 2.78125 1.64453125 C9.06534729 5.32181576 15.06592166 8.68864055 22 11 C23.3465266 11.63960014 24.68922893 12.289999 26 13 C18.75420281 13.67090715 14.24161903 11.58125682 8 8 C8 7.34 8 6.68 8 6 C7.13375 5.814375 7.13375 5.814375 6.25 5.625 C3.97664233 4.99351176 2.0746471 4.11141809 0 3 C0 2.01 0 1.02 0 0 Z " fill="#555A6D" transform="translate(120,303)"/>
<path d="M0 0 C0 0.33 0 0.66 0 1 C-0.66902344 1.14695313 -1.33804687 1.29390625 -2.02734375 1.4453125 C-9.36483194 3.15903457 -16.34901119 5.4423117 -23.38647461 8.10595703 C-25.23864322 8.79106117 -27.11787111 9.40209776 -29 10 C-29.66 9.67 -30.32 9.34 -31 9 C-21.39424144 3.70924359 -11.15784899 -0.87512541 0 0 Z " fill="#595E73" transform="translate(302,197)"/>
<path d="M0 0 C0.66 0 1.32 0 2 0 C2.29132813 0.73863281 2.58265625 1.47726562 2.8828125 2.23828125 C5.79828858 9.45362615 9.13268244 16.24880646 13 23 C7.9919886 21.33066287 6.41379845 16.48096788 4 12 C0 3.98776758 0 3.98776758 0 0 Z " fill="#5B6074" transform="translate(235,292)"/>
<path d="M0 0 C-1.52524036 3.60286506 -3.67485437 5.94299983 -6.4375 8.6875 C-7.21996094 9.47511719 -8.00242187 10.26273438 -8.80859375 11.07421875 C-11 13 -11 13 -14 14 C-12.53772206 8.63831423 -6.08760693 0 0 0 Z " fill="#50597B" transform="translate(78,211)"/>
<path d="M0 0 C-4.455 1.485 -4.455 1.485 -9 3 C-8.484375 4.4025 -7.96875 5.805 -7.4375 7.25 C-6.19773777 10.62215325 -5.81228277 12.57056481 -7 16 C-7.87144869 14.4470724 -8.72153657 12.88214564 -9.5625 11.3125 C-10.27599609 10.00732422 -10.27599609 10.00732422 -11.00390625 8.67578125 C-12.14268368 5.61671247 -11.92718689 4.08136961 -11 1 C-4.5 -1.125 -4.5 -1.125 0 0 Z " fill="#565B6A" transform="translate(189,342)"/>
<path d="M0 0 C0.66 0 1.32 0 2 0 C2.66 1.65 3.32 3.3 4 5 C4.66 5 5.32 5 6 5 C7.50708218 7.05700369 8.85798406 9.08286582 10.1875 11.25 C10.56841797 11.83652344 10.94933594 12.42304687 11.34179688 13.02734375 C14.06247202 17.4219007 14.06247202 17.4219007 13.73828125 20.421875 C13.49464844 20.94265625 13.25101562 21.4634375 13 22 C12.731875 21.47792969 12.46375 20.95585938 12.1875 20.41796875 C9.11518316 14.64726838 5.5316839 9.48618716 1.57421875 4.28515625 C0 2 0 2 0 0 Z " fill="#595E71" transform="translate(276,60)"/>
<path d="M0 0 C6.73771974 1.6333866 10.92005415 8.02452771 14.4375 13.625 C16.04876625 17.1053351 16.36873423 19.22047418 16 23 C15.75894531 22.48308594 15.51789063 21.96617187 15.26953125 21.43359375 C13.58190385 18.19854184 11.64725597 15.13656349 9.6875 12.0625 C9.30916016 11.45470703 8.93082031 10.84691406 8.54101562 10.22070312 C6.04856339 6.31122221 3.39194599 3.16381511 0 0 Z " fill="#555967" transform="translate(327,248)"/>
<path d="M0 0 C0.66 0 1.32 0 2 0 C0.3003494 4.73474097 -2.13659027 8.96167111 -4.625 13.3125 C-5.04523438 14.05306641 -5.46546875 14.79363281 -5.8984375 15.55664062 C-6.92948495 17.37269011 -7.96436046 19.18656533 -9 21 C-10 18 -10 18 -9.19555664 16.00708008 C-8.55928345 14.89949341 -8.55928345 14.89949341 -7.91015625 13.76953125 C-7.45576172 12.96708984 -7.00136719 12.16464844 -6.53320312 11.33789062 C-6.04787109 10.50451172 -5.56253906 9.67113281 -5.0625 8.8125 C-4.58103516 7.96751953 -4.09957031 7.12253906 -3.60351562 6.25195312 C-2.4112945 4.16261511 -1.20990182 2.07913325 0 0 Z " fill="#595D6C" transform="translate(230,393)"/>
<path d="M0 0 C2 0 2 0 3.55078125 1.50390625 C10.97572104 10.1800554 10.97572104 10.1800554 14 15 C13.67 15.99 13.34 16.98 13 18 C12.64808594 17.5153125 12.29617187 17.030625 11.93359375 16.53125 C8.61012056 12.01896264 5.11583155 7.78819792 1.3203125 3.6640625 C0 2 0 2 0 0 Z " fill="#5A5F71" transform="translate(198,204)"/>
<path d="M0 0 C4.35936698 0.4442009 6.73361199 3.32447469 9.625 6.3125 C10.11484375 6.79912109 10.6046875 7.28574219 11.109375 7.78710938 C13.62291366 10.33841979 15.65158834 12.66069819 17 16 C16.01 16 15.02 16 14 16 C11 12.66666667 11 12.66666667 11 10 C10.34 10 9.68 10 9 10 C7.59765625 8.57421875 7.59765625 8.57421875 6.0625 6.6875 C4.13536829 4.33649789 2.18280707 2.11764865 0 0 Z " fill="#595D6F" transform="translate(281,38)"/>
<path d="M0 0 C0 0.66 0 1.32 0 2 C-2.78871177 3.33957921 -5.58143062 4.67058435 -8.375 6 C-9.1690625 6.3815625 -9.963125 6.763125 -10.78125 7.15625 C-11.54179687 7.5171875 -12.30234375 7.878125 -13.0859375 8.25 C-13.7876709 8.58515625 -14.4894043 8.9203125 -15.21240234 9.265625 C-17 10 -17 10 -19 10 C-19 9.34 -19 8.68 -19 8 C-16.39939496 6.65929682 -13.79495084 5.32726646 -11.1875 4 C-10.44951172 3.6184375 -9.71152344 3.236875 -8.95117188 2.84375 C-8.23896484 2.4828125 -7.52675781 2.121875 -6.79296875 1.75 C-6.1383667 1.41484375 -5.48376465 1.0796875 -4.80932617 0.734375 C-3 0 -3 0 0 0 Z " fill="#5B6074" transform="translate(184,21)"/>
<path d="M0 0 C0 3.97510879 -1.46859727 5.39084063 -3.8125 8.5625 C-4.52019531 9.53316406 -5.22789062 10.50382812 -5.95703125 11.50390625 C-8 14 -8 14 -11 16 C-10.38910214 12.04326153 -8.41059799 9.49283525 -6.0625 6.3125 C-5.35222656 5.33925781 -4.64195312 4.36601562 -3.91015625 3.36328125 C-2 1 -2 1 0 0 Z " fill="#5A5E6F" transform="translate(409,424)"/>
<path d="M0 0 C0.99 1.0209375 0.99 1.0209375 2 2.0625 C6.34194964 6.40444964 10.88707972 10.59138648 16 14 C15.67 14.66 15.34 15.32 15 16 C11.535 14.02 11.535 14.02 8 12 C8 11.34 8 10.68 8 10 C7.01 9.67 6.02 9.34 5 9 C2.3125 6.6875 2.3125 6.6875 0 4 C0 2.68 0 1.36 0 0 Z " fill="#595F75" transform="translate(257,308)"/>
<path d="M0 0 C4.15151338 1.44202476 7.29978445 3.5010438 10.8125 6.125 C11.78832031 6.84945312 12.76414063 7.57390625 13.76953125 8.3203125 C14.50558594 8.87460938 15.24164063 9.42890625 16 10 C15.67 10.99 15.34 11.98 15 13 C14.33613281 12.45730469 13.67226562 11.91460937 12.98828125 11.35546875 C12.10527344 10.64003906 11.22226563 9.92460937 10.3125 9.1875 C9.44238281 8.47980469 8.57226562 7.77210938 7.67578125 7.04296875 C5.05248981 4.94992599 5.05248981 4.94992599 2.16796875 3.36328125 C1.45253906 2.91339844 0.73710937 2.46351563 0 2 C0 1.34 0 0.68 0 0 Z " fill="#595E73" transform="translate(175,201)"/>
<path d="M0 0 C6.72045875 2.19037174 13.36724003 4.55765661 20 7 C20 7.33 20 7.66 20 8 C15.26107548 8.27667374 12.07406001 7.48007938 7.75 5.5625 C6.71359375 5.11003906 5.6771875 4.65757813 4.609375 4.19140625 C3.06179638 3.48480224 1.52165405 2.76082702 0 2 C0 1.34 0 0.68 0 0 Z " fill="#565A69" transform="translate(189,123)"/>
<path d="M0 0 C7.60154046 0.32978484 13.97319219 2.12782571 21 5 C21 5.66 21 6.32 21 7 C20.40574219 6.81824219 19.81148438 6.63648438 19.19921875 6.44921875 C12.82913223 4.51738847 6.42941642 2.72347474 0 1 C0 0.67 0 0.34 0 0 Z " fill="#545867" transform="translate(334,187)"/>
<path d="M0 0 C0.66 0 1.32 0 2 0 C0.56513293 4.30460122 -2.62100893 5.27656048 -6.4375 7.25 C-7.47874023 7.81460937 -7.47874023 7.81460937 -8.54101562 8.390625 C-10.32554276 9.33039534 -12.16043481 10.17313528 -14 11 C-14.66 10.67 -15.32 10.34 -16 10 C-14.49145828 6.98291655 -12.10730943 6.35542698 -9.125 4.875 C-8.05507813 4.33617187 -6.98515625 3.79734375 -5.8828125 3.2421875 C-3 2 -3 2 0 2 C0 1.34 0 0.68 0 0 Z " fill="#575A68" transform="translate(368,461)"/>
<path d="M0 0 C3.15624686 1.38736126 5.19863433 3.00392708 7.5625 5.5 C9.67524223 7.72096733 11.41613626 9.27742417 14 11 C13.67 11.99 13.34 12.98 13 14 C11.66079162 12.88200014 10.32877444 11.75538103 9 10.625 C8.2575 9.99851562 7.515 9.37203125 6.75 8.7265625 C6.1725 8.15679687 5.595 7.58703125 5 7 C5 6.34 5 5.68 5 5 C4.34 5 3.68 5 3 5 C3 4.34 3 3.68 3 3 C2.01 2.67 1.02 2.34 0 2 C0 1.34 0 0.68 0 0 Z " fill="#5C6174" transform="translate(57,317)"/>
<path d="M0 0 C3.89304473 0.56601005 6.49542487 1.6798 9.75 3.875 C10.52859375 4.38804687 11.3071875 4.90109375 12.109375 5.4296875 C14 7 14 7 15 10 C11.58809167 8.38340534 8.43782465 6.45729895 5.25 4.4375 C4.26515625 3.81746094 3.2803125 3.19742188 2.265625 2.55859375 C1.51796875 2.04425781 0.7703125 1.52992188 0 1 C0 0.67 0 0.34 0 0 Z " fill="#575D72" transform="translate(364,199)"/>
<path d="M0 0 C3.63 0.33 7.26 0.66 11 1 C11.33 2.32 11.66 3.64 12 5 C10.5625 6.75 10.5625 6.75 9 8 C9.33 6.35 9.66 4.7 10 3 C9.36191406 2.95101563 8.72382813 2.90203125 8.06640625 2.8515625 C7.24011719 2.77679688 6.41382813 2.70203125 5.5625 2.625 C4.73878906 2.55539062 3.91507813 2.48578125 3.06640625 2.4140625 C2.38449219 2.27742188 1.70257813 2.14078125 1 2 C0.67 1.34 0.34 0.68 0 0 Z " fill="#575C70" transform="translate(248,342)"/>
<path d="M0 0 C3.92511991 0.583844 6.73512799 1.76510024 10.125 3.8125 C10.97320312 4.31394531 11.82140625 4.81539062 12.6953125 5.33203125 C15.01875144 7.01357096 16.42275619 8.62382549 18 11 C14.10508136 9.5810861 10.79470749 7.74229459 7.3125 5.5 C6.35988281 4.8915625 5.40726562 4.283125 4.42578125 3.65625 C2 2 2 2 0 0 Z " fill="#585D6E" transform="translate(354,206)"/>
<path d="M0 0 C0.66 0.33 1.32 0.66 2 1 C0.92130607 1.96355244 -0.16318743 2.92061417 -1.25 3.875 C-1.85328125 4.40867187 -2.4565625 4.94234375 -3.078125 5.4921875 C-7.09849164 8.64637758 -9.88838769 9.23234601 -15 9 C-11.56448701 6.70965801 -7.99166802 5.00773438 -4.27734375 3.21875 C-1.88877494 2.08197469 -1.88877494 2.08197469 0 0 Z " fill="#555968" transform="translate(183,306)"/>
<path d="M0 0 C4.53761171 4.17460278 7.23579204 9.88633632 8 16 C5.550167 13.75132631 3.93845505 11.4579695 2.3125 8.5625 C1.87550781 7.80066406 1.43851563 7.03882813 0.98828125 6.25390625 C0 4 0 4 0 0 Z " fill="#575C6E" transform="translate(204,227)"/>
<path d="M0 0 C1.77260631 0.45142775 3.5430368 0.91140523 5.3125 1.375 C6.79169922 1.75785156 6.79169922 1.75785156 8.30078125 2.1484375 C11 3 11 3 14 5 C8.72 4.67 3.44 4.34 -2 4 C-1.34 2.68 -0.68 1.36 0 0 Z " fill="#575B6B" transform="translate(267,346)"/>
<path d="M0 0 C0.33 0.66 0.66 1.32 1 2 C-0.328125 4.78515625 -0.328125 4.78515625 -2.25 8.0625 C-2.87390625 9.14660156 -3.4978125 10.23070312 -4.140625 11.34765625 C-6 14 -6 14 -9 15 C-7.61219205 11.10993227 -5.7847773 8.03441292 -3.375 4.6875 C-2.74335938 3.80449219 -2.11171875 2.92148437 -1.4609375 2.01171875 C-0.97882813 1.34785156 -0.49671875 0.68398438 0 0 Z " fill="#5B6174" transform="translate(215,304)"/>
<path d="M0 0 C0.66 0 1.32 0 2 0 C3.00484204 1.95585325 4.00373805 3.91476237 5 5.875 C5.556875 6.96554687 6.11375 8.05609375 6.6875 9.1796875 C8 12 8 12 8 14 C7.34 14 6.68 14 6 14 C4.99515796 12.04414675 3.99626195 10.08523763 3 8.125 C2.1646875 6.48917969 2.1646875 6.48917969 1.3125 4.8203125 C0 2 0 2 0 0 Z " fill="#5B6279" transform="translate(55,288)"/>
<path d="M0 0 C1.32 0.33 2.64 0.66 4 1 C4 1.66 4 2.32 4 3 C4.66 3 5.32 3 6 3 C7.2890625 4.6796875 7.2890625 4.6796875 8.625 6.875 C9.07101563 7.59429687 9.51703125 8.31359375 9.9765625 9.0546875 C11 11 11 11 11 13 C10.34 13 9.68 13 9 13 C7.59765625 11.171875 7.59765625 11.171875 6.0625 8.75 C4.1404588 5.74158768 2.17570215 2.83166011 0 0 Z " fill="#555A6D" transform="translate(186,235)"/>
<path d="M0 0 C0.99 0.33 1.98 0.66 3 1 C2.67 1.99 2.34 2.98 2 4 C-3.61 3.67 -9.22 3.34 -15 3 C-15 2.67 -15 2.34 -15 2 C-10.05 2 -5.1 2 0 2 C0 1.34 0 0.68 0 0 Z " fill="#4F5159" transform="translate(244,328)"/>
<path d="M0 0 C3.915141 3.35583515 6.0795774 7.28066362 8 12 C8 12.66 8 13.32 8 14 C7.34 14 6.68 14 6 14 C4.99515796 12.04414675 3.99626195 10.08523763 3 8.125 C2.1646875 6.48917969 2.1646875 6.48917969 1.3125 4.8203125 C0 2 0 2 0 0 Z " fill="#5A5F72" transform="translate(170,352)"/>
<path d="M0 0 C-3.95523655 2.75668002 -7.22423661 3.5317879 -12 4 C-12 3.34 -12 2.68 -12 2 C-10.56656 1.46809459 -9.12804633 0.94984742 -7.6875 0.4375 C-6.48673828 0.00244141 -6.48673828 0.00244141 -5.26171875 -0.44140625 C-3 -1 -3 -1 0 0 Z " fill="#585E73" transform="translate(350,342)"/>
<path d="M0 0 C1 3 1 3 0.22265625 5.04296875 C-0.16019531 5.75066406 -0.54304688 6.45835937 -0.9375 7.1875 C-1.31777344 7.90292969 -1.69804688 8.61835938 -2.08984375 9.35546875 C-2.54037109 10.16951172 -2.54037109 10.16951172 -3 11 C-3.66 11 -4.32 11 -5 11 C-4.46884894 6.48521602 -2.63379708 3.65333143 0 0 Z " fill="#5B6072" transform="translate(53,220)"/>
<path d="M0 0 C0.66 0 1.32 0 2 0 C0.44499019 3.81684226 -2.03595495 6.19195732 -5 9 C-4.42676569 5.13066838 -2.61046448 2.84777943 0 0 Z " fill="#595D6E" transform="translate(60,211)"/>
<path d="M0 0 C0 0.66 0 1.32 0 2 C-1.6796875 3.2890625 -1.6796875 3.2890625 -3.875 4.625 C-4.95394531 5.29402344 -4.95394531 5.29402344 -6.0546875 5.9765625 C-8 7 -8 7 -10 7 C-10 6.34 -10 5.68 -10 5 C-9.01 5 -8.02 5 -7 5 C-7 4.34 -7 3.68 -7 3 C-2.61538462 0 -2.61538462 0 0 0 Z " fill="#575A68" transform="translate(90,188)"/>
<path d="M0 0 C2.61500768 2.36595933 4.38999603 4.86049226 6 8 C5.67 8.66 5.34 9.32 5 10 C2.9754262 8.06745228 1.57894208 6.36841312 0 4 C0 2.68 0 1.36 0 0 Z " fill="#535767" transform="translate(191,388)"/>
<path d="M0 0 C0.66 0.33 1.32 0.66 2 1 C0.38405168 3.04119788 -1.2856382 5.04072937 -3 7 C-3.66 7 -4.32 7 -5 7 C-5.33 7.66 -5.66 8.32 -6 9 C-5.52797514 4.75177626 -3.03344482 2.80010291 0 0 Z " fill="#565C72" transform="translate(199,311)"/>
<path d="M0 0 C3.99500618 1.3697164 6.80009492 3.25722422 10 6 C9.01 6.495 9.01 6.495 8 7 C2.25 3.375 2.25 3.375 0 0 Z " fill="#5B627D" transform="translate(179,190)"/>
<path d="M0 0 C5.57142857 5.14285714 5.57142857 5.14285714 6 9 C0.42857143 3.85714286 0.42857143 3.85714286 0 0 Z " fill="#565B70" transform="translate(249,317)"/>
<path d="M0 0 C2.04219706 1.69179328 2.91793306 2.63727666 3.51171875 5.26171875 C3.56972656 6.06222656 3.62773437 6.86273438 3.6875 7.6875 C3.75324219 8.49574219 3.81898438 9.30398437 3.88671875 10.13671875 C3.92410156 10.75160156 3.96148437 11.36648437 4 12 C1.21366885 7.82050327 0 5.06624674 0 0 Z " fill="#5C6279" transform="translate(390,240)"/>
<path d="M0 0 C3.45925163 1.2491742 6.14693203 2.67527795 9 5 C5.87709365 4.51421457 3.00419641 4.0013988 0 3 C0 2.01 0 1.02 0 0 Z " fill="#515565" transform="translate(86,341)"/>
<path d="M0 0 C0.66 0 1.32 0 2 0 C0.7508258 3.45925163 -0.67527795 6.14693203 -3 9 C-2.5020163 5.26512223 -2.12508244 3.18762365 0 0 Z " fill="#535662" transform="translate(248,362)"/>
<path d="M0 0 C2.49361571 1.20381448 4.68143083 2.45428722 7 4 C6.67 4.99 6.34 5.98 6 7 C3.95880212 5.38405168 1.95927063 3.7143618 0 2 C0 1.34 0 0.68 0 0 Z " fill="#575D73" transform="translate(179,228)"/>
</svg>
